<svg xmlns="http://www.w3.org/2000/svg" width="32" height="32" viewBox="0 0 32 32">
  <rect width="32" height="32" rx="6" fill="#1A0A00"/>
  <path d="M16 4C16 4 10 12 10 18C10 21.5 12.5 25 16 27C19.5 25 22 21.5 22 18C22 12 16 4 16 4Z" fill="#EA580C"/>
  <path d="M16 10C16 10 13 15 13 19C13 21 14.5 23 16 24C17.5 23 19 21 19 19C19 15 16 10 16 10Z" fill="#FB923C"/>
  <path d="M16 15C16 15 14.5 17.5 14.5 19.5C14.5 20.8 15.3 22 16 22.5C16.7 22 17.5 20.8 17.5 19.5C17.5 17.5 16 15 16 15Z" fill="#FDE68A"/>
</svg>
